<?xml version="1.0" encoding="utf-8"?>
<!-- Generator: Adobe Illustrator 23.0.5, SVG Export Plug-In . SVG Version: 6.00 Build 0)  -->
<svg version="1.1" id="Capa_1" xmlns="http://www.w3.org/2000/svg" xmlns:xlink="http://www.w3.org/1999/xlink" x="0px" y="0px"
	 viewBox="0 0 448.1 448.1" style="enable-background:new 0 0 448.1 448.1;" xml:space="preserve">
<style type="text/css">
	.st0{fill:#FFFFFF;}
	.st1{fill:none;stroke:#000000;stroke-width:2;stroke-miterlimit:10;}
</style>
<g>
	<g>
		<path class="st0" d="M184.1,0C82.5,0,0.1,82.4,0.1,184s82.4,184,184,184s184-82.4,184-184C368,82.4,285.7,0.1,184.1,0z M184.1,304
			c-66.3,0-120-53.7-120-120s53.7-120,120-120s120,53.7,120,120C304,250.2,250.3,303.9,184.1,304z"/>
	</g>
</g>
<g>
	<g>
		<path class="st0" d="M438.6,393.4l-64-64c-12.5-12.5-32.8-12.5-45.3,0s-12.5,32.8,0,45.3l64,64c12.5,12.5,32.8,12.5,45.3,0
			S451.1,405.9,438.6,393.4z"/>
	</g>
</g>
<rect x="0.1" class="st1" width="447.9" height="447.9"/>
</svg>
