<?xml version="1.0" encoding="utf-8"?>
<!-- Generator: Adobe Illustrator 23.0.5, SVG Export Plug-In . SVG Version: 6.00 Build 0)  -->
<svg version="1.1" id="Capa_1" xmlns="http://www.w3.org/2000/svg" xmlns:xlink="http://www.w3.org/1999/xlink" x="0px" y="0px"
	 viewBox="0 0 277.4 277.4" style="enable-background:new 0 0 277.4 277.4;" xml:space="preserve">
<style type="text/css">
	.st0{fill:#FFFFFF;}
</style>
<path id="_x30_6-Movie_Clapper" class="st0" d="M59.5,117.3c-0.5-4.2-2-8.2-4.3-11.6l203-67.8L247.6,6.1c-1.5-4.6-6.6-7.1-11.2-5.6
	L15.5,74.2c-4.6,1.5-7.1,6.6-5.6,11.2l5.2,15.6c-5.2,4.8-8.5,11.8-8.5,19.4c0,9.9,5.5,18.6,13.6,23.1v125c0,4.9,4,8.9,8.9,8.9h232.8
	c4.9,0,8.9-4,8.9-8.9V117.3H59.5z M188.9,26.7l26.9-9l-6.5,26.1l-26.9,9L188.9,26.7z M122.5,48.9l26.9-9l-6.5,26.1L116,75
	L122.5,48.9z M33.2,133.9c-7.4,0-13.5-6.1-13.5-13.5s6.1-13.5,13.5-13.5c7.4,0,13.5,6.1,13.5,13.5S40.6,133.9,33.2,133.9z
	 M56.1,71.1l26.9-9l-6.5,26.1l-26.9,9L56.1,71.1z M82.5,147.2H54.1l14.4-22.7h28.3L82.5,147.2z M138.6,124.4h28.3l-14.4,22.7h-28.3
	L138.6,124.4z M131.6,234.4v-60l47.8,30L131.6,234.4z M222.5,147.2h-28.3l14.4-22.7h28.3L222.5,147.2z"/>
</svg>
