<?xml version="1.0" encoding="utf-8"?>
<!-- Generator: Adobe Illustrator 23.0.5, SVG Export Plug-In . SVG Version: 6.00 Build 0)  -->
<svg version="1.1" id="Capa_1" xmlns="http://www.w3.org/2000/svg" xmlns:xlink="http://www.w3.org/1999/xlink" x="0px" y="0px"
	 viewBox="0 0 512 512" style="enable-background:new 0 0 512 512;" xml:space="preserve">
<style type="text/css">
	.st0{fill:#DF7174;}
	.st1{fill:#FBF3DB;}
</style>
<g>
	<path class="st0" d="M10,92L0,313c0,78,70,84,70,84h183l83,115h34l6-119l78-3c0,0,58-1,58-62l-8-252c0-76-87-76-87-76H80
		C80,0,10,18,10,92z"/>
	<g>
		<path class="st1" d="M153,300l231-4c0,0-47-88-120-88S153,300,153,300z"/>
		<ellipse class="st1" cx="168" cy="144" rx="42" ry="44"/>
		<ellipse class="st1" cx="353" cy="141" rx="43" ry="44"/>
	</g>
</g>
</svg>
