<?xml version="1.0" encoding="utf-8"?>
<!-- Generator: Adobe Illustrator 23.0.5, SVG Export Plug-In . SVG Version: 6.00 Build 0)  -->
<svg version="1.1" id="Capa_1" xmlns="http://www.w3.org/2000/svg" xmlns:xlink="http://www.w3.org/1999/xlink" x="0px" y="0px"
	 viewBox="0 0 511 511" style="enable-background:new 0 0 511 511;" xml:space="preserve">
<style type="text/css">
	.st0{fill:#FFFFFF;}
</style>
<path class="st0" d="M494.7,37.9H14.3C5.9,37.9-1,44.8-1,53.3v261.5h511V53.3C510,44.8,503.1,37.9,494.7,37.9z M191.1,225.1
	c0,8.5-6.9,15.3-15.3,15.3c-8.5,0-15.3-6.9-15.3-15.3v-33h-40.5c-8.5,0-15.3-6.9-15.3-15.3v-46.6c0-8.5,6.9-15.3,15.3-15.3
	c8.5,0,15.3,6.9,15.3,15.3v31.3h25.2v-31.3c0-8.5,6.9-15.3,15.3-15.3c8.5,0,15.3,6.9,15.3,15.3V225.1z M297.8,197.1
	c0,23.9-19.4,43.3-43.3,43.3s-43.3-19.4-43.3-43.3V158c0-23.9,19.4-43.3,43.3-43.3s43.3,19.4,43.3,43.3V197.1z M404.4,225.1
	c0,8.5-6.9,15.3-15.3,15.3c-8.5,0-15.3-6.9-15.3-15.3v-33h-40.5c-8.5,0-15.3-6.9-15.3-15.3v-46.6c0-8.5,6.9-15.3,15.3-15.3
	c8.5,0,15.3,6.9,15.3,15.3v31.3h25.2v-31.3c0-8.5,6.9-15.3,15.3-15.3c8.5,0,15.3,6.9,15.3,15.3V225.1z"/>
<path class="st0" d="M254.5,145.4c-7,0-12.6,5.7-12.6,12.6v39.1c0,7,5.7,12.6,12.6,12.6s12.6-5.7,12.6-12.6V158
	C267.1,151.1,261.5,145.4,254.5,145.4z"/>
<path class="st0" d="M-1,345.4v52.1c0,8.5,6.9,15.3,15.3,15.3h480.3c8.5,0,15.3-6.9,15.3-15.3v-52.1H-1z"/>
<path class="st0" d="M380.2,443.5H128.8c-8.5,0-15.3,6.9-15.3,15.3c0,8.5,6.9,15.3,15.3,15.3h251.4c8.5,0,15.3-6.9,15.3-15.3
	C395.5,450.4,388.7,443.5,380.2,443.5z"/>
</svg>
